<svg width="63" height="63" viewBox="0 0 63 63" fill="none" xmlns="http://www.w3.org/2000/svg">
<path d="M55.799 0.00666667C55.799 0.00666667 7.011 -0.00833333 7.025 0.00666667C2.528 0.00666667 0 2.33167 0 7.08067V56.0467C0 60.4897 2.273 62.8157 6.766 62.8157H55.939C60.432 62.8157 62.708 60.6057 62.708 56.0467V7.08067C62.709 2.44667 60.433 0.00666667 55.799 0.00666667ZM30.137 22.6617C30.137 24.1977 28.738 25.8427 26.922 25.8427V51.7777C26.922 55.4597 21.904 55.4597 21.904 51.7777V25.8427C20.137 25.8427 18.598 24.4817 18.598 22.4427V8.16967C18.598 6.92767 20.393 6.87967 20.393 8.21867V18.7687H21.896V8.12067C21.896 6.97967 23.625 6.90667 23.625 8.16967V18.7687H25.178V8.13567C25.178 6.94267 26.856 6.89467 26.856 8.18267V18.7687H28.384V8.13567C28.384 6.95567 30.137 6.90867 30.137 8.18267V22.6617ZM43.523 51.7657C43.523 55.3667 38.495 55.3127 38.495 51.7657V35.7837H35.818V11.4867C35.818 5.83067 43.524 5.83067 43.524 11.4867V51.7657H43.523Z" fill="#761B1B"/>
</svg>
